<svg width="165" height="21" viewBox="0 0 165 21" fill="none" xmlns="http://www.w3.org/2000/svg">
<path d="M36 20.6797H30.8986V9.49562L26.0543 17.4251H24.5683L19.7018 9.44391L14.6007 1.32034H20.1538L25.3211 9.49562L30.4725 1.32034H36.0003L36 20.6797Z" fill="#ED7159"/>
<path d="M25.3197 9.49562L26.0558 17.4251L36.0003 1.32034H30.4725L25.3197 9.49562Z" fill="#F39C8F"/>
<path d="M12.1399 20.6796L8.54975 14.3642L4.23594 20.6796H0V1.32026H5.10138L5.04966 8.96593V11.668L5.7989 10.5803L11.8299 1.32026H17.435L11.6361 10.2572L18.0419 20.6796H12.1399Z" fill="white"/>
<path d="M8.54975 14.3642L11.6361 10.2572L12.1399 20.6796L8.54975 14.3642Z" fill="white"/>
<path d="M75.616 19.4999H71.176L67.264 13.2119L63.016 19.4999H59.848V1.93194H63.64L63.592 10.9559V13.1159L64.048 12.1559L70.696 1.93194H74.872L69.496 10.2359L75.616 19.4999Z" fill="white"/>
<path d="M94.5571 5.65194C97.4611 5.65194 99.4531 7.81194 99.4531 11.3159V19.4999H95.8051V11.7959C95.8051 10.0199 94.7011 8.93994 93.0931 8.93994C91.5571 8.93994 90.2851 10.1879 90.2851 12.0599V19.4999H86.6371V11.8439C86.6371 10.0199 85.5571 8.93994 83.9971 8.93994C82.3171 8.93994 81.1171 10.5719 81.1171 12.1079V19.4999H77.4691V5.89194H81.1171V7.81194C82.1011 6.73194 83.5171 5.65194 85.4371 5.65194C87.3091 5.65194 88.7971 6.58794 89.6131 8.17194C90.6211 7.01994 92.2051 5.65194 94.5571 5.65194Z" fill="white"/>
<path d="M113.515 5.21994V9.20394H120.907V12.3959H113.515V19.4999H109.723V1.93194H121.867V5.21994H113.515Z" fill="white"/>
<path d="M129.561 6.13194C131.32 6.13194 132.665 6.51594 133.592 7.28394C134.536 8.03594 135.008 9.19594 135.008 10.7639V19.4999H132.512L131.816 17.7239H131.721C131.353 18.1879 130.968 18.5719 130.568 18.8759C130.184 19.1799 129.736 19.3959 129.225 19.5239C128.729 19.6679 128.113 19.7399 127.377 19.7399C126.609 19.7399 125.912 19.5959 125.288 19.3079C124.68 19.0039 124.201 18.5479 123.849 17.9399C123.497 17.3159 123.321 16.5319 123.321 15.5879C123.321 14.1959 123.809 13.1719 124.785 12.5159C125.76 11.8439 127.224 11.4759 129.176 11.4119L131.456 11.3399V10.7639C131.456 10.0759 131.272 9.57195 130.904 9.25194C130.552 8.93194 130.057 8.77194 129.417 8.77194C128.777 8.77194 128.152 8.86794 127.545 9.05994C126.937 9.23594 126.328 9.45994 125.72 9.73195L124.545 7.30794C125.249 6.93994 126.024 6.65194 126.872 6.44394C127.736 6.23594 128.633 6.13194 129.561 6.13194ZM130.064 13.4759C128.913 13.5079 128.113 13.7159 127.664 14.0999C127.216 14.4839 126.993 14.9879 126.993 15.6119C126.993 16.1559 127.153 16.5479 127.473 16.7879C127.793 17.0119 128.209 17.1239 128.721 17.1239C129.489 17.1239 130.137 16.8999 130.665 16.4519C131.193 15.9879 131.456 15.3399 131.456 14.5079V13.4279L130.064 13.4759ZM134.624 1.35594C134.4 1.57994 134.104 1.85194 133.736 2.17194C133.368 2.49194 132.969 2.82794 132.536 3.17994C132.12 3.53194 131.704 3.86794 131.288 4.18794C130.889 4.49194 130.536 4.74794 130.232 4.95594H127.856V4.64394C128.113 4.33994 128.409 3.98794 128.745 3.58794C129.097 3.17194 129.441 2.74794 129.777 2.31594C130.113 1.86794 130.393 1.46794 130.617 1.11594H134.624V1.35594Z" fill="white"/>
<path d="M137.708 12.7319C137.708 8.77194 140.9 5.62794 144.908 5.62794C148.004 5.62794 150.26 7.33194 151.172 9.46794L148.052 10.7879C147.5 9.77994 146.54 8.91594 144.932 8.91594C142.844 8.91594 141.356 10.5479 141.356 12.7319C141.356 14.9159 142.844 16.4759 144.932 16.4759C146.564 16.4759 147.572 15.6359 148.1 14.6759L151.22 15.9719C150.284 18.2039 148.1 19.7639 144.932 19.7639C140.876 19.7639 137.708 16.8359 137.708 12.7319Z" fill="white"/>
<path d="M157.463 2.45994C157.463 3.56394 156.551 4.47594 155.399 4.47594C154.223 4.47594 153.287 3.56394 153.287 2.45994C153.287 1.40394 154.247 0.491943 155.399 0.491943C156.527 0.491943 157.463 1.35594 157.463 2.45994ZM153.551 19.4999V5.89194H157.199V19.4999H153.551Z" fill="white"/>
<path d="M160.719 19.4999V0.875944H164.367V19.4999H160.719Z" fill="white"/>
</svg>
